<svg xmlns="http://www.w3.org/2000/svg" xmlns:xlink="http://www.w3.org/1999/xlink" version="1.1" x="0px" y="0px" viewBox="0 0 57 72.0125" enable-background="new 0 0 57 57.61" xml:space="preserve"><g><circle fill="#000000" cx="31" cy="28.61" r="1"/><circle fill="#000000" cx="44" cy="28.61" r="1"/><path fill="#000000" d="M54.94,24.52c0.63-0.31,1.06-0.95,1.06-1.69v-3.22c0-1.04-0.84-1.88-1.88-1.88c-0.08,0-0.17,0-0.29,0.02   l-2.63,0.47c-2.35-2.68-5.37-4.57-9.03-5.6c0,0-0.2-0.04-0.57-0.12c0.01-2.54-2.54-5.94-5.28-8.33C32.5,0.84,27.6-1.34,25.6,0.94   c-1.12,1.28-0.77,3.46,0.87,5.96c-0.4-0.06-0.8-0.11-1.21-0.15c-2.55-0.26-5-0.17-6.89,0.27c-2.87,0.66-3.58,1.88-3.68,2.8   c-0.2,2,2.38,3.46,5.33,4.31c-0.55,0.38-1.08,0.78-1.58,1.21c-3.95,3.4-8.46,8.73-9.94,16.05l-2.71-3.39   c-0.35-0.43-0.97-0.5-1.41-0.16c-0.43,0.35-0.5,0.97-0.16,1.41l2.7,3.38H1c-0.55,0-1,0.45-1,1s0.45,1,1,1h5.15l-2.77,2.22   c-0.43,0.35-0.5,0.97-0.16,1.41c0.2,0.25,0.49,0.38,0.78,0.38c0.22,0,0.44-0.07,0.62-0.22l3.39-2.71C8,36.12,7.99,36.55,8,37   l-0.02,0l0.06,0.91c0,0,0,0.01,0,0.01c0.35,5.02,2.68,9.61,6.46,12.88l0.24,0.22l0.01-0.01c0.6,0.5,1.24,0.97,1.91,1.41l-0.03,0.02   l0.67,0.38c0.02,0.01,0.04,0.03,0.06,0.04c0.11,0.06,0.21,0.12,0.32,0.18l0.1,0.06c0.02,0.01,0.05,0.03,0.07,0.04   c0.41,0.23,0.83,0.46,1.25,0.68c0.04,0.02,0.08,0.04,0.11,0.06c0.42,0.21,0.83,0.42,1.25,0.61c0.05,0.02,0.1,0.05,0.15,0.07   c0.41,0.19,0.81,0.37,1.22,0.54c0.08,0.03,0.17,0.06,0.25,0.1c0.38,0.15,0.77,0.31,1.15,0.45c0.12,0.04,0.25,0.08,0.37,0.13   c0.35,0.12,0.7,0.24,1.05,0.35c0.18,0.06,0.37,0.11,0.55,0.16c0.3,0.09,0.59,0.18,0.89,0.26c0.28,0.07,0.55,0.14,0.83,0.2   c0.21,0.05,0.42,0.11,0.63,0.15c0.49,0.11,0.99,0.21,1.49,0.29c1.58,0.27,3.18,0.41,4.75,0.41c0,0,0,0,0,0   c3.81,0,7.47-0.82,10.71-2.37c0.07-0.03,0.14-0.06,0.21-0.09c0.47-0.23,0.93-0.48,1.39-0.74c0.47-0.27,0.92-0.57,1.37-0.87   c0.03-0.02,0.05-0.03,0.08-0.05l0.96-0.65l-0.02-0.03c4.39-3.34,7.22-8.05,8.23-13.78c0.19-1.07,0.27-2.22,0.25-3.52   C56.96,33.2,56.62,28.84,54.94,24.52z M54,19.75v2.98l-10.09,1.8l-4.02,0.72c0,0,0,0,0,0L38,25.59l-2.9-0.49c0,0,0,0,0,0   l-10.11-1.7c0,0,0,0,0,0L21,22.73v-2.98l17,2.87L54,19.75z M25.45,25.51l8.52,1.43c0.02,0.52,0.03,0.97,0.03,1.16   c0,0.96-0.3,1.87-0.86,2.64c-0.39,0.23-0.78,0.49-1.17,0.77c-0.03,0.03-0.07,0.05-0.1,0.08c-0.3,0.22-0.6,0.46-0.89,0.71   c-0.03,0.03-0.07,0.05-0.1,0.08c-0.45,0.15-0.92,0.22-1.38,0.22c-2.48,0-4.5-2.02-4.5-4.5C25,27.44,25.16,26.41,25.45,25.51z    M30.12,36.82c0.36-1.09,1.08-2.03,1.95-2.82c0.31-0.29,0.66-0.57,1.03-0.84c0,0,0,0,0.01,0c0.37-0.27,0.76-0.52,1.18-0.77   c1.67-0.97,3.32-1.54,3.94-1.74c0.79,0.23,1.52,0.49,2.21,0.77c0.37,0.15,0.74,0.3,1.08,0.46c0.11,0.05,0.22,0.11,0.33,0.16   c0.36,0.18,0.71,0.36,1.04,0.55c0.08,0.05,0.16,0.1,0.25,0.15c0.34,0.2,0.66,0.41,0.96,0.63c0.07,0.05,0.15,0.11,0.22,0.16   c0.29,0.22,0.56,0.44,0.81,0.67c0.79,0.73,1.44,1.51,1.91,2.38c0.83,1.53,0.98,3,0.94,4.05C43.15,37.71,33.51,36.99,30.12,36.82z    M43.46,40.88l-4.56,2.53c-0.97,0.54-2.21,0.32-2.95-0.51l-3.42-3.91C35.83,39.26,40.08,39.83,43.46,40.88z M46.27,32.54   c-0.27-0.23-0.56-0.45-0.85-0.67c-0.09-0.07-0.18-0.14-0.27-0.21c-0.27-0.19-0.55-0.37-0.84-0.55c-0.15-0.09-0.29-0.18-0.45-0.27   c-0.27-0.15-0.54-0.3-0.83-0.44c-0.21-0.11-0.42-0.21-0.63-0.31c-0.26-0.12-0.53-0.24-0.8-0.35c-0.12-0.05-0.23-0.11-0.36-0.16   C41.08,29.1,41,28.61,41,28.11c0-0.18,0.01-0.57,0.03-1.02l8.54-1.52c0.28,0.89,0.43,1.9,0.43,2.55   C50,30.3,48.39,32.17,46.27,32.54z M39.04,28.82c-0.18-0.05-0.35-0.12-0.53-0.17c-0.18-0.05-0.36-0.05-0.54,0   c-0.11,0.03-0.96,0.27-2.11,0.75c0.08-0.42,0.14-0.85,0.14-1.29c0-0.15-0.01-0.46-0.02-0.83L38,27.62l1.01-0.18   C39.01,27.73,39,27.98,39,28.11C39,28.35,39.01,28.58,39.04,28.82z M10.14,38.75C10.14,38.75,10.14,38.75,10.14,38.75   c3.23,0,5.86,2.63,5.86,5.86c0,1.33-0.46,2.61-1.28,3.64C12.2,45.64,10.6,42.32,10.14,38.75z M45.13,52.68   c-0.51,0.29-1.03,0.56-1.56,0.81c-0.15,0.07-0.3,0.14-0.45,0.2c-0.42,0.19-0.85,0.36-1.29,0.52c-0.13,0.05-0.26,0.1-0.4,0.15   c-0.58,0.2-1.16,0.38-1.75,0.53c-0.02,0-0.04,0.01-0.06,0.01c-0.58,0.15-1.17,0.26-1.76,0.36c-0.12,0.02-0.24,0.04-0.36,0.06   c-0.55,0.08-1.11,0.15-1.67,0.2c-0.07,0.01-0.14,0.01-0.21,0.02c-0.64,0.05-1.28,0.07-1.93,0.07c-0.35,0-0.71-0.03-1.07-0.05   c-0.35-0.02-0.7-0.02-1.05-0.05c-0.72-0.06-1.43-0.15-2.15-0.28c-0.73-0.13-1.45-0.28-2.18-0.46c-0.12-0.03-0.24-0.06-0.37-0.09   c-0.7-0.18-1.4-0.39-2.09-0.62c-0.1-0.03-0.2-0.07-0.3-0.1c-1.49-0.51-2.96-1.14-4.39-1.87c-0.01-0.01-0.03-0.01-0.04-0.02   c2.93-2.16,7.52-3.46,12.39-3.46c5.26,0,10.08,1.47,12.95,3.9C45.31,52.56,45.23,52.63,45.13,52.68z M54.77,38.69   c-0.94,5.37-3.51,9.62-7.64,12.67c-3.19-2.95-8.71-4.76-14.68-4.76c-5.76,0-10.99,1.65-14.25,4.42c-0.71-0.43-1.38-0.91-2.01-1.43   c1.16-1.4,1.81-3.17,1.81-5c0-4.33-3.52-7.86-7.86-7.86c-0.05,0-0.1,0.01-0.14,0.01c-0.13-9.39,5.21-16,9.74-19.91   c1.01-0.87,2.16-1.62,3.42-2.23l2.82-1.36l-3.08-0.53c-4.43-0.76-6.27-2.27-6.22-2.71c0.02-0.18,0.58-0.69,2.13-1.05   c1.69-0.39,3.9-0.47,6.24-0.23c1.25,0.13,2.46,0.34,3.59,0.64l3.19,0.83l-2.19-2.46c-2.42-2.72-3.03-4.93-2.54-5.49   c0.69-0.78,4.19,0.18,7.9,3.43c3.61,3.16,4.95,6.23,4.52,7.23l-0.48,1.14l1.22,0.23c0.87,0.16,1.41,0.28,1.42,0.28c0,0,0,0,0,0   c2.81,0.79,5.21,2.17,7.16,4.08L38,20.59l-16.86-2.84C19.99,17.59,19,18.49,19,19.62v3.22c0,0.94,0.7,1.74,1.6,1.86l2.87,0.48   C23.19,26.14,23,27.22,23,28.11c0,3.41,2.64,6.21,5.99,6.47c-0.57,0.91-0.97,1.94-1.08,3.09c-0.03,0.28,0.06,0.55,0.25,0.76   c0.18,0.21,0.45,0.33,0.73,0.34c0.25,0.01,0.54,0.02,0.84,0.03l4.73,5.41c0.85,0.97,2.07,1.49,3.31,1.49   c0.72,0,1.45-0.18,2.11-0.54l6.03-3.35c0.86,0.4,1.6,0.85,2.14,1.36c0.19,0.18,0.44,0.28,0.69,0.28c0.08,0,0.17-0.01,0.25-0.03   c0.33-0.08,0.6-0.33,0.71-0.66c0.04-0.14,1.08-3.45-0.85-7.06c-0.28-0.53-0.63-1.03-1.01-1.51c2.45-0.94,4.18-3.33,4.18-6.07   c0-0.88-0.18-1.94-0.46-2.9l1.42-0.25c1.68,4.12,2.01,8.36,2.04,10.6C55.01,36.72,54.94,37.74,54.77,38.69z"/><path fill="#000000" d="M24,40.61c-2.24,0-4,1.32-4,3s1.76,3,4,3s4-1.32,4-3S26.24,40.61,24,40.61z M24,44.61c-1.22,0-2-0.59-2-1   s0.78-1,2-1s2,0.59,2,1S25.22,44.61,24,44.61z"/><path fill="#000000" d="M19.94,30.25c-0.7-1.58-2.06-2.64-3.39-2.64c-0.34,0-0.67,0.07-0.98,0.2c-1.54,0.68-2.03,2.83-1.12,4.88   c0.7,1.58,2.07,2.64,3.39,2.64c0.34,0,0.67-0.07,0.98-0.21C20.36,34.44,20.85,32.3,19.94,30.25z M18.01,33.29   c-0.42,0.18-1.27-0.39-1.73-1.42c-0.5-1.12-0.27-2.07,0.1-2.23c0.05-0.02,0.1-0.03,0.16-0.03c0.45,0,1.16,0.54,1.56,1.45   C18.61,32.18,18.38,33.13,18.01,33.29z"/></g><text x="0" y="72.61" fill="#000000" font-size="5px" font-weight="bold" font-family="'Helvetica Neue', Helvetica, Arial-Unicode, Arial, Sans-serif">Created by Oliviu Stoian</text><text x="0" y="77.61" fill="#000000" font-size="5px" font-weight="bold" font-family="'Helvetica Neue', Helvetica, Arial-Unicode, Arial, Sans-serif">from the Noun Project</text></svg>