<svg xmlns="http://www.w3.org/2000/svg" xmlns:xlink="http://www.w3.org/1999/xlink" version="1.1" x="0px" y="0px" viewBox="0 0 57 72" enable-background="new 0 0 57 57.6" xml:space="preserve"><g><path fill="#000000" d="M42.16,12.62c0,0-0.2-0.04-0.57-0.12c0.01-2.54-2.54-5.94-5.28-8.33C33.38,1.6,30.17,0,27.93,0   c-1.26,0-1.96,0.5-2.34,0.93c-1.12,1.28-0.77,3.46,0.87,5.96c-0.4-0.06-0.8-0.11-1.21-0.15c-0.94-0.1-1.87-0.14-2.77-0.14   c-4.68,0-7.6,1.2-7.8,3.21c-0.21,2,2.38,3.46,5.33,4.31c-0.55,0.38-1.08,0.78-1.58,1.21c-3.95,3.4-8.46,8.73-9.94,16.05l-2.71-3.39   c-0.35-0.43-0.97-0.5-1.41-0.16c-0.43,0.35-0.5,0.97-0.16,1.41l2.7,3.38H1c-0.55,0-1,0.45-1,1s0.45,1,1,1h5.15l-2.77,2.22   c-0.43,0.35-0.5,0.97-0.16,1.41c0.2,0.25,0.49,0.38,0.78,0.38c0.22,0,0.44-0.07,0.62-0.22l3.39-2.71C8,36.14,7.99,36.61,8,37.09   c0.16,6.24,3.39,11.91,8.67,15.32l-0.03,0.02l0.67,0.38c0.02,0.01,0.04,0.03,0.06,0.04c0.11,0.06,0.21,0.12,0.32,0.18l0.1,0.06   c0.02,0.01,0.05,0.03,0.07,0.04c0.41,0.23,0.83,0.46,1.25,0.68c0.04,0.02,0.08,0.04,0.12,0.06c0.41,0.21,0.83,0.42,1.25,0.61   c0.05,0.02,0.1,0.05,0.15,0.07c0.41,0.19,0.81,0.37,1.22,0.54c0.08,0.03,0.17,0.06,0.25,0.1c0.38,0.15,0.77,0.31,1.15,0.45   c0.12,0.04,0.25,0.08,0.37,0.13c0.35,0.12,0.7,0.24,1.05,0.35c0.18,0.06,0.37,0.11,0.55,0.16c0.3,0.09,0.59,0.18,0.89,0.26   c0.28,0.07,0.55,0.14,0.83,0.2c0.21,0.05,0.42,0.11,0.63,0.15c0.49,0.11,0.99,0.21,1.49,0.29c1.58,0.27,3.18,0.41,4.75,0.41   c0,0,0,0,0,0c4.45,0,8.7-1.11,12.3-3.2c0.47-0.27,0.92-0.57,1.37-0.87c0.03-0.02,0.05-0.03,0.08-0.05l0.96-0.65l-0.02-0.03   c4.39-3.34,7.22-8.05,8.23-13.78c0.19-1.07,0.27-2.22,0.25-3.52C56.92,29.86,55.31,16.32,42.16,12.62z M33.84,55.6L33.84,55.6   c-1.46,0-2.94-0.13-4.41-0.38c-0.73-0.13-1.46-0.29-2.18-0.46c-0.12-0.03-0.24-0.06-0.36-0.09c-0.7-0.18-1.4-0.39-2.1-0.62   c-0.1-0.03-0.2-0.07-0.29-0.1c-1.49-0.51-2.96-1.14-4.39-1.87c-0.01-0.01-0.03-0.01-0.04-0.02c2.93-2.16,7.52-3.46,12.39-3.46   c5.26,0,10.08,1.47,12.95,3.9c-0.09,0.06-0.18,0.12-0.27,0.18C41.84,54.58,37.93,55.6,33.84,55.6z M54.77,38.68   c-0.94,5.37-3.51,9.62-7.64,12.67c-3.19-2.95-8.71-4.76-14.68-4.76c-5.76,0-10.99,1.65-14.25,4.42c-4.99-3.02-8.05-8.23-8.2-13.98   c-0.25-9.54,5.16-16.26,9.75-20.21c1.01-0.87,2.16-1.62,3.42-2.23l2.82-1.36l-3.08-0.53c-4.43-0.76-6.27-2.27-6.22-2.71   c0.04-0.4,1.83-1.41,5.81-1.41c0.83,0,1.69,0.04,2.56,0.13c1.25,0.13,2.46,0.34,3.59,0.64l3.19,0.83l-2.19-2.46   c-2.42-2.72-3.03-4.93-2.54-5.49C27.29,2.03,27.7,2,27.93,2C29.36,2,32.1,3.14,35,5.67c3.61,3.16,4.95,6.23,4.52,7.23l-0.48,1.14   l1.22,0.23c0.87,0.16,1.41,0.28,1.42,0.28c0,0,0,0,0,0C53.47,17.88,54.92,30.34,55,35.54C55.01,36.7,54.94,37.73,54.77,38.68z"/><path fill="#000000" d="M43.54,30.63c2.55-0.55,4.46-2.82,4.46-5.54c0-2.18-1.23-4.13-3.2-5.09c-0.26-0.13-0.55-0.13-0.82-0.03   l-6.41,2.63c-0.11,0.05-0.21,0.12-0.3,0.2l-9.44-2.64c-0.36-0.1-0.75,0.01-1,0.28C25.65,21.74,25,23.39,25,25.09   c0,3.63,2.85,6.61,6.44,6.81c-1.77,1.4-3.28,3.29-3.53,5.75c-0.03,0.28,0.06,0.55,0.25,0.76c0.18,0.21,0.45,0.33,0.73,0.34   c0.25,0.01,0.54,0.02,0.84,0.03l4.73,5.41c0.85,0.97,2.07,1.49,3.31,1.49c0.72,0,1.45-0.18,2.11-0.54l6.03-3.35   c0.86,0.4,1.6,0.85,2.14,1.36c0.19,0.18,0.44,0.28,0.69,0.28c0.08,0,0.17-0.01,0.25-0.03c0.33-0.08,0.6-0.33,0.71-0.66   c0.04-0.14,1.08-3.45-0.85-7.06C47.75,33.65,45.97,31.96,43.54,30.63z M38.77,24.29l5.53-2.27c1.06,0.67,1.7,1.82,1.7,3.08   c0,2.02-1.64,3.67-3.67,3.67c-2.02,0-3.67-1.64-3.67-3.67C38.67,24.83,38.7,24.57,38.77,24.29z M27,25.09   c0-1.01,0.32-1.99,0.92-2.81l8.72,2.43c0.02,0.15,0.03,0.28,0.03,0.38c0,2.67-2.17,4.83-4.83,4.83S27,27.76,27,25.09z M37.78,28.45   c0.05,0.06,0.09,0.13,0.14,0.19c-0.05,0.02-0.16,0.05-0.32,0.1C37.66,28.65,37.72,28.55,37.78,28.45z M38.9,43.4   c-0.97,0.54-2.21,0.32-2.95-0.51l-3.42-3.91c3.3,0.28,7.55,0.85,10.92,1.89L38.9,43.4z M47.99,40.63   c-4.84-2.93-14.48-3.66-17.87-3.82c1.25-3.8,6.84-5.77,8.12-6.17c4.41,1.29,7.37,3.29,8.81,5.95   C47.88,38.11,48.03,39.59,47.99,40.63z"/><path fill="#000000" d="M28.17,18.54l8.33,2.83c0.11,0.04,0.22,0.05,0.32,0.05c0.42,0,0.81-0.26,0.95-0.68   c0.18-0.52-0.1-1.09-0.62-1.27l-8.33-2.83c-0.53-0.18-1.09,0.1-1.27,0.62C27.37,17.8,27.65,18.36,28.17,18.54z"/><path fill="#000000" d="M40,20.26c0.21,0,0.42-0.07,0.61-0.21l3.49-2.67c0.44-0.33,0.52-0.96,0.19-1.4s-0.96-0.53-1.4-0.19   l-3.49,2.67c-0.44,0.33-0.52,0.96-0.19,1.4C39.4,20.13,39.7,20.26,40,20.26z"/><circle fill="#000000" cx="32.16" cy="26.26" r="1.17"/><circle fill="#000000" cx="42.66" cy="26.26" r="1.17"/></g><text x="0" y="72.6" fill="#000000" font-size="5px" font-weight="bold" font-family="'Helvetica Neue', Helvetica, Arial-Unicode, Arial, Sans-serif">Created by Oliviu Stoian</text><text x="0" y="77.6" fill="#000000" font-size="5px" font-weight="bold" font-family="'Helvetica Neue', Helvetica, Arial-Unicode, Arial, Sans-serif">from the Noun Project</text></svg>